<svg width="50" height="46" viewBox="0 0 50 46" fill="none" xmlns="http://www.w3.org/2000/svg">
<g clip-path="url(#clip0_650_2095)">
<path d="M0 4.05357V42.0116C0 43.8286 1.47011 45.3152 3.26691 45.3152H25.6942C42.6495 45.3152 50 35.7183 50 22.9831C50 10.3138 42.6495 0.75 25.6942 0.75H3.26691C1.47011 0.75 0 2.23661 0 4.05357Z" fill="white"/>
<path d="M15.0114 10.0661V38.1134H27.0826C38.0431 38.1134 42.7965 31.8531 42.7965 22.9996C42.7965 14.5259 38.0431 7.95178 27.0826 7.95178H17.1022C15.9425 7.95178 15.0114 8.90982 15.0114 10.0661Z" fill="#CC0066"/>
<path d="M25.6942 42.2925H6.19078C4.45932 42.2925 3.05455 40.8719 3.05455 39.121V6.96074C3.05455 5.20984 4.45932 3.78931 6.19078 3.78931H25.6942C44.2012 3.78931 46.9618 15.8308 46.9618 22.9996C46.9618 35.4376 39.3989 42.2925 25.6942 42.2925ZM6.19078 4.84645C5.03103 4.84645 4.09996 5.78797 4.09996 6.96074V39.121C4.09996 40.2938 5.03103 41.2353 6.19078 41.2353H25.6942C38.7292 41.2353 45.9164 34.7603 45.9164 22.9996C45.9164 7.20851 33.2408 4.84645 25.6942 4.84645H6.19078Z" fill="black"/>
<path d="M19.2584 19.217C19.6831 19.217 20.0751 19.283 20.4508 19.4152C20.8265 19.5473 21.1369 19.762 21.4146 20.0263C21.6759 20.3071 21.8883 20.654 22.0516 21.0504C22.1986 21.4634 22.2803 21.9424 22.2803 22.504C22.2803 22.9995 22.215 23.4455 22.1006 23.8585C21.9699 24.2714 21.7903 24.6348 21.5452 24.9321C21.3002 25.2295 20.9899 25.4607 20.6142 25.6424C20.2385 25.8076 19.7975 25.9067 19.2911 25.9067H16.4325V19.2004H19.2584V19.217ZM19.1604 24.6844C19.3728 24.6844 19.5688 24.6513 19.7811 24.5853C19.9771 24.5192 20.1568 24.4036 20.3038 24.2384C20.4508 24.0732 20.5815 23.875 20.6795 23.6107C20.7775 23.3464 20.8265 23.0491 20.8265 22.6692C20.8265 22.3388 20.7939 22.025 20.7285 21.7607C20.6632 21.4964 20.5488 21.2487 20.4018 21.067C20.2548 20.8853 20.0588 20.7201 19.8138 20.621C19.5688 20.5219 19.2747 20.4723 18.9154 20.4723H17.87V24.7009H19.1604V24.6844Z" fill="white"/>
<path d="M28.1771 19.217V20.4558H24.6815V21.8929H27.8994V23.0326H24.6815V24.6679H28.2587V25.9067H23.2277V19.2004H28.1771V19.217Z" fill="white"/>
<path d="M33.1754 19.217L35.6583 25.9232H34.1392L33.6328 24.4366H31.1499L30.6272 25.9232H29.1571L31.6563 19.217H33.1754ZM33.2571 23.3299L32.424 20.8688H32.4077L31.542 23.3299H33.2571Z" fill="white"/>
<path d="M38.0268 19.217V24.6844H41.261V25.9232H36.573V19.217H38.0268Z" fill="white"/>
<path d="M9.5557 25.6589C11.2427 25.6589 12.6103 24.276 12.6103 22.5701C12.6103 20.8642 11.2427 19.4813 9.5557 19.4813C7.86872 19.4813 6.50114 20.8642 6.50114 22.5701C6.50114 24.276 7.86872 25.6589 9.5557 25.6589Z" fill="black"/>
<path d="M11.8589 38.1134C9.29434 38.1134 7.23619 36.0156 7.23619 33.4389V29.7884C7.23619 28.5 8.26527 27.4429 9.55569 27.4429C10.8298 27.4429 11.8752 28.4835 11.8752 29.7884V38.1134H11.8589Z" fill="black"/>
</g>
<defs>
<clipPath id="clip0_650_2095">
<rect width="50" height="44.5652" fill="white" transform="translate(0 0.75)"/>
</clipPath>
</defs>
</svg>
