<svg width="192" height="192" viewBox="0 0 192 192" fill="none" xmlns="http://www.w3.org/2000/svg"><rect width="192" height="192" rx="48" fill="#210F2D"/><rect x="53.625" y="77.25" width="19.5" height="79.875" fill="white"/><path fill-rule="evenodd" clip-rule="evenodd" d="M138.375 77.625H118.725V77.25C118.725 74.2657 118.137 71.3106 116.995 68.5535C115.853 65.7964 114.179 63.2912 112.069 61.181C109.959 59.0708 107.454 57.3969 104.696 56.2548C101.939 55.1128 98.9843 54.525 96 54.525H95.625L95.625 34.875L96 34.875C101.565 34.875 107.075 35.9711 112.216 38.1006C117.357 40.2301 122.029 43.3515 125.964 47.2863C129.899 51.2212 133.02 55.8926 135.149 61.0338C137.279 66.175 138.375 71.6852 138.375 77.25V77.625Z" fill="white"/><path fill-rule="evenodd" clip-rule="evenodd" d="M138.375 76.8749H118.725V77.2499C118.725 80.2342 118.137 83.1893 116.995 85.9464C115.853 88.7036 114.179 91.2087 112.069 93.319C109.959 95.4292 107.454 97.103 104.696 98.2451C101.939 99.3871 98.9843 99.9749 96 99.9749H95.625L95.625 119.625H96C101.565 119.625 107.075 118.529 112.216 116.399C117.357 114.27 122.029 111.148 125.964 107.214C129.899 103.279 133.02 98.6073 135.149 93.4661C137.279 88.325 138.375 82.8147 138.375 77.2499V76.8749Z" fill="white"/><path fill-rule="evenodd" clip-rule="evenodd" d="M53.625 77.625H73.275V77.25C73.275 74.2657 73.8628 71.3106 75.0048 68.5535C76.1469 65.7964 77.8208 63.2912 79.931 61.181C82.0412 59.0708 84.5464 57.3969 87.3035 56.2548C90.0606 55.1128 93.0157 54.525 96 54.525H96.375V34.875L96 34.875C90.4352 34.875 84.925 35.9711 79.7838 38.1006C74.6426 40.2301 69.9712 43.3515 66.0363 47.2863C62.1015 51.2212 58.9802 55.8926 56.8506 61.0338C54.7211 66.175 53.625 71.6852 53.625 77.25V77.625Z" fill="white"/><path fill-rule="evenodd" clip-rule="evenodd" d="M53.625 76.875H73.275V77.25C73.275 80.2343 73.8628 83.1894 75.0048 85.9465C76.1469 88.7036 77.8208 91.2088 79.931 93.319C82.0412 95.4292 84.5464 97.1031 87.3035 98.2452C90.0606 99.3872 93.0157 99.975 96 99.975H96.375L96.375 119.625H96C90.4352 119.625 84.925 118.529 79.7838 116.399C74.6426 114.27 69.9712 111.149 66.0364 107.214C62.1015 103.279 58.9802 98.6074 56.8506 93.4662C54.7211 88.325 53.625 82.8148 53.625 77.25V76.875Z" fill="white"/><path fill-rule="evenodd" clip-rule="evenodd" d="M155.25 114.375H135.6V114.75C135.6 117.734 135.012 120.689 133.87 123.447C132.728 126.204 131.054 128.709 128.944 130.819C126.834 132.929 124.329 134.603 121.571 135.745C118.814 136.887 115.859 137.475 112.875 137.475H112.5L112.5 157.125H112.875C118.44 157.125 123.95 156.029 129.091 153.899C134.232 151.77 138.904 148.649 142.839 144.714C146.774 140.779 149.895 136.107 152.024 130.966C154.154 125.825 155.25 120.315 155.25 114.75V114.375Z" fill="url(#paint0_linear_2567_160)"/><defs><linearGradient id="paint0_linear_2567_160" x1="112.5" y1="157.125" x2="145.688" y2="114.375" gradientUnits="userSpaceOnUse"><stop stop-color="#2674E0"/><stop offset="1" stop-color="#2674E0" stop-opacity="0"/></linearGradient></defs></svg>